<svg width="12" height="13" viewBox="0 0 12 13" fill="none" xmlns="http://www.w3.org/2000/svg">
<path d="M11.4707 2.17701C11.389 2.0963 11.2909 2.03217 11.1822 1.98856C11.0735 1.94494 10.9565 1.92275 10.8384 1.92333H9.93274V1.28201C9.93482 1.14136 9.90643 1.0018 9.84934 0.871932C9.79225 0.742068 9.70767 0.624657 9.60081 0.526942C9.49754 0.425893 9.37352 0.345941 9.23637 0.292015C9.09922 0.238088 8.95186 0.21133 8.80338 0.21339H8.3521C8.20356 0.211427 8.05617 0.238303 7.91902 0.292359C7.78187 0.346415 7.65787 0.426506 7.55467 0.52769C7.44777 0.625379 7.36317 0.742785 7.30607 0.872655C7.24898 1.00252 7.22062 1.1421 7.22274 1.28276V1.92408H4.51274V1.28201C4.51481 1.14136 4.48643 1.0018 4.42934 0.871932C4.37225 0.742068 4.28766 0.624657 4.1808 0.526942C4.07763 0.425985 3.95373 0.346087 3.81672 0.292164C3.67972 0.238241 3.53251 0.211433 3.38416 0.21339H2.93289C2.78434 0.211427 2.63695 0.238303 2.4998 0.292359C2.36265 0.346415 2.23865 0.426506 2.13545 0.52769C2.02859 0.625406 1.94401 0.742817 1.88692 0.87268C1.82983 1.00254 1.80145 1.14211 1.80352 1.28276V1.92408H0.900184C0.782128 1.9235 0.665186 1.94569 0.556485 1.98931C0.447783 2.03292 0.349602 2.09704 0.267929 2.17776C0.182682 2.2551 0.114961 2.34806 0.0688993 2.45099C0.0228373 2.55391 -0.000601975 2.66464 1.05193e-05 2.77643V11.3306C0.00305796 11.5561 0.0987552 11.7716 0.266805 11.9315C0.434854 12.0913 0.662039 12.1828 0.900184 12.1867H10.8353C11.0739 12.1836 11.3017 12.0925 11.4704 11.9328C11.6391 11.773 11.7354 11.5573 11.7386 11.3314V2.77867C11.7397 2.66639 11.7164 2.55508 11.6704 2.45162C11.6243 2.34815 11.5563 2.2547 11.4707 2.17701ZM2.93526 11.3306H0.900184V9.40666H2.9321L2.93526 11.3306ZM2.93526 8.97861H0.900184V6.84062H2.9321L2.93526 8.97861ZM2.93526 6.41258H0.900184V4.48861H2.9321L2.93526 6.41258ZM2.77719 3.35564C2.75581 3.33635 2.73882 3.31312 2.72726 3.28738C2.71571 3.26164 2.70984 3.23394 2.71002 3.20597V1.28201C2.71083 1.22549 2.73491 1.1715 2.77712 1.13153C2.81934 1.09156 2.87635 1.06876 2.93605 1.06799H3.38416C3.44385 1.06876 3.50087 1.09156 3.54308 1.13153C3.5853 1.1715 3.60937 1.22549 3.61019 1.28201V3.20672C3.60937 3.26324 3.5853 3.31723 3.54308 3.3572C3.50087 3.39717 3.44385 3.41997 3.38416 3.42074H2.93289C2.90304 3.42097 2.87345 3.41538 2.84599 3.4043C2.81852 3.39323 2.79376 3.37692 2.77324 3.35639L2.77719 3.35564ZM5.64526 11.3299H3.38416V9.40666H5.6421L5.64526 11.3299ZM5.64526 8.97786H3.38416V6.84062H5.6421L5.64526 8.97786ZM5.64526 6.41183H3.38416V4.48861H5.6421L5.64526 6.41183ZM8.35527 11.3291H6.09337V9.40666H8.35131L8.35527 11.3291ZM8.35527 8.97711H6.09337V6.84062H8.35131L8.35527 8.97711ZM8.35527 6.41108H6.09337V4.48861H8.35131L8.35527 6.41108ZM8.1972 3.35414C8.17543 3.33541 8.15789 3.31268 8.14566 3.28734C8.13344 3.262 8.12677 3.23457 8.12607 3.20672V1.28201C8.12669 1.22543 8.1507 1.17133 8.19296 1.13132C8.23521 1.09131 8.29235 1.06857 8.3521 1.06799H8.80338C8.86313 1.06857 8.92027 1.09131 8.96252 1.13132C9.00478 1.17133 9.02879 1.22543 9.02941 1.28201V3.20672C9.02879 3.2633 9.00478 3.3174 8.96252 3.35741C8.92027 3.39742 8.86313 3.42016 8.80338 3.42074H8.3521C8.32225 3.42102 8.29265 3.41544 8.26518 3.40437C8.2377 3.39329 8.21295 3.37696 8.19246 3.35639L8.1972 3.35414ZM10.84 11.3284H8.80338V9.40666H10.8353L10.84 11.3284ZM10.84 8.97636H8.80338V6.84062H10.8353L10.84 8.97636ZM10.84 6.41033H8.80338V4.48861H10.8353L10.84 6.41033Z" fill="#333333"/>
</svg>
