<svg width="15" height="16" viewBox="0 0 15 16" fill="none" xmlns="http://www.w3.org/2000/svg">
<path d="M2.98658 3.28905C4.31853 1.93046 5.92343 1.25117 7.80126 1.25117C9.6791 1.25117 11.284 1.93046 12.6159 3.28905C13.9479 4.64765 14.6139 6.28464 14.6139 8.20003C14.6139 10.1154 13.9479 11.7524 12.6159 13.111C11.284 14.4696 9.6791 15.1489 7.80126 15.1489C5.92343 15.1489 4.31853 14.4696 2.98658 13.111C1.65462 11.7524 0.988647 10.1154 0.988647 8.20003C0.988647 6.28464 1.65462 4.64765 2.98658 3.28905ZM3.37961 12.7101C4.60239 13.9573 6.07627 14.581 7.80126 14.581C9.52625 14.581 11.0001 13.9573 12.2229 12.7101C13.4457 11.4629 14.0571 9.95952 14.0571 8.20003C14.0571 6.44054 13.4457 4.93718 12.2229 3.68995C11.0001 2.44272 9.52625 1.8191 7.80126 1.8191C6.07627 1.8191 4.60239 2.44272 3.37961 3.68995C2.15684 4.93718 1.54545 6.44054 1.54545 8.20003C1.54545 9.95952 2.15684 11.4629 3.37961 12.7101ZM7.80126 8.20003V3.92381H8.35806V8.76797H4.65698V8.20003H7.80126Z" fill="#333333"/>
<path fill-rule="evenodd" clip-rule="evenodd" d="M7.80126 1.50613C5.98996 1.50613 4.44859 2.15839 3.16335 3.46933C1.87812 4.78027 1.23865 6.35247 1.23865 8.2C1.23865 10.0475 1.87812 11.6197 3.16335 12.9307C4.44859 14.2416 5.98996 14.8939 7.80126 14.8939C9.61256 14.8939 11.1539 14.2416 12.4392 12.9307C13.7244 11.6197 14.3639 10.0475 14.3639 8.2C14.3639 6.35247 13.7244 4.78027 12.4392 3.46933C11.1539 2.15839 9.61256 1.50613 7.80126 1.50613ZM2.8098 3.10871C4.18847 1.70246 5.85689 0.996132 7.80126 0.996132C9.74563 0.996132 11.414 1.70246 12.7927 3.10871C14.1714 4.51496 14.8639 6.21674 14.8639 8.2C14.8639 10.1833 14.1714 11.885 12.7927 13.2913C11.414 14.6975 9.74563 15.4039 7.80126 15.4039C5.85689 15.4039 4.18847 14.6975 2.8098 13.2913C1.43113 11.885 0.738647 10.1833 0.738647 8.2C0.738647 6.21674 1.43113 4.51496 2.8098 3.10871ZM3.20284 3.5096C4.47237 2.21468 6.00978 1.56407 7.80126 1.56407C9.59274 1.56407 11.1302 2.21468 12.3997 3.5096C13.6692 4.80452 14.3071 6.37269 14.3071 8.2C14.3071 10.0273 13.6692 11.5955 12.3997 12.8904C11.1302 14.1853 9.59274 14.8359 7.80126 14.8359C6.00978 14.8359 4.47237 14.1853 3.20284 12.8904C1.93331 11.5955 1.29545 10.0273 1.29545 8.2C1.29545 6.37269 1.93331 4.80452 3.20284 3.5096ZM7.80126 2.07407C6.14276 2.07407 4.73241 2.67068 3.55639 3.87023C2.38037 5.06977 1.79545 6.50833 1.79545 8.2C1.79545 9.89167 2.38037 11.3302 3.55639 12.5298C4.73241 13.7293 6.14276 14.3259 7.80126 14.3259C9.45976 14.3259 10.8701 13.7293 12.0461 12.5298C13.2222 11.3302 13.8071 9.89167 13.8071 8.2C13.8071 6.50833 13.2222 5.06977 12.0461 3.87023C10.8701 2.67068 9.45976 2.07407 7.80126 2.07407ZM7.55126 3.66877H8.60806V9.02293H4.40698V7.945H7.55126V3.66877ZM8.05126 4.17877V8.455H4.90698V8.51293H8.10806V4.17877H8.05126Z" fill="#333333"/>
</svg>
